<svg height="475pt" viewBox="-11 0 475 475.78005" width="475pt" xmlns="http://www.w3.org/2000/svg"><path d="m445.488281 216.21875v64.582031l-47.859375 4.609375c-4.53125 20.980469-12.941406 40.929688-24.796875 58.820313l30.558594 36.898437-45.550781 45.550782-36.898438-30.558594c-17.945312 11.753906-37.871094 20.15625-58.8125 24.800781l-4.617187 47.859375-62.25-.011719-4.613281-47.847656c-20.941407-4.648437-40.871094-13.050781-58.816407-24.800781l-36.902343 30.558594-45.550782-45.558594 30.5625-36.902344c-11.851562-17.886719-20.261718-37.832031-24.792968-58.808594l-47.859376-4.609375v-64.582031l47.859376-4.609375c4.640624-20.945313 13.039062-40.875 24.792968-58.820313l-30.5625-36.898437 34.5625-30.550781 51.398438 71.25c-50.765625 50.769531-50.765625 133.078125 0 183.847656 50.769531 50.765625 133.082031 50.765625 183.847656 0 50.769531-50.769531 50.769531-133.078125.003906-183.847656l49.660156-71.261719 34.546876 30.5625-30.558594 36.898437c11.75 17.949219 20.148437 37.878907 24.789062 58.820313zm0 0" fill="#00efd1"/><path d="m317.820312 248.851562h-48.640624v-78.03125h.339843c35.179688 16.480469 48.300781 36.507813 48.300781 78.03125zm0 0" fill="#00efd1"/><path d="m183.601562 170.199219v-55.289063c0-33.015625 10.707032-65.140625 30.519532-91.550781l12.269531-16.359375 12.269531 16.359375c19.808594 26.410156 30.519532 58.535156 30.519532 91.550781v146.621094h-85.578126zm64.339844 3.28125c.011719-10.296875-7.25-19.167969-17.347656-21.1875s-20.214844 3.378906-24.160156 12.890625c-3.949219 9.507812-.625 20.484375 7.933594 26.207031 8.5625 5.722656 19.972656 4.601563 27.253906-2.679687 4.042968-4.039063 6.316406-9.515626 6.320312-15.230469zm0 0" fill="#00acea"/><path d="m260.261719 294.820312c.03125 1.621094-.582031 3.183594-1.707031 4.351563s-2.664063 1.839844-4.285157 1.867187h-55.648437c-3.371094-.003906-6.101563-2.738281-6.101563-6.109374v-.101563l.589844-33.257813v-.039062h66.5625v.039062zm0 0" fill="#f4b844"/><path d="m248.261719 302.261719c.367187 2.410156.578125 4.847656.628906 7.289062 0 19.648438-15.53125 35.808594-21.871094 37.078125h-1.578125c-6.339844-1.269531-21.550781-17.429687-21.550781-37.078125 0-2.671875.320313-5.335937.949219-7.929687v-.582032h43.421875zm0 0" fill="#fedb41"/><path d="m226.390625 151.929688c11.902344 0 21.550781 9.648437 21.550781 21.550781 0 11.902343-9.648437 21.550781-21.550781 21.550781s-21.550781-9.648438-21.550781-21.550781c0-11.902344 9.648437-21.550781 21.550781-21.550781zm0 0" fill="#fedb41"/><path d="m183.601562 170.199219v78.652343h-48.640624c0-42.140624 12.527343-62.492187 48.640624-78.652343zm0 0" fill="#00efd1"/><g fill="#083863"><path d="m446.109375 209.253906-42.84375-4.128906c-4.566406-18.28125-11.921875-35.746094-21.800781-51.789062l27.320312-32.980469c2.410156-2.910157 2.078125-7.203125-.75-9.707031l-34.546875-30.558594c-1.492187-1.324219-3.484375-1.945313-5.464843-1.707032-1.984376.238282-3.769532 1.308594-4.914063 2.949219l-49.660156 71.257813c-1.9375 2.785156-1.601563 6.554687.796875 8.953125 48.03125 48.035156 48.03125 125.914062-.003906 173.949219-48.035157 48.03125-125.914063 48.03125-173.945313 0-48.035156-48.035157-48.035156-125.914063-.003906-173.949219 2.429687-2.429688 2.738281-6.257813.726562-9.042969l-51.398437-71.25c-1.15625-1.605469-2.9375-2.644531-4.902344-2.863281s-3.929688.402343-5.410156 1.710937l-34.558594 30.550782c-2.832031 2.503906-3.167969 6.800781-.757812 9.710937l27.3125 32.976563c-9.886719 16.039062-17.246094 33.507812-21.816407 51.789062l-42.816406 4.128906c-3.582031.347656-6.304687 3.371094-6.28125 6.964844v64.582031c-.023437 3.597657 2.699219 6.617188 6.277344 6.96875l42.820312 4.125c4.488281 18.3125 11.851563 35.792969 21.8125 51.800781l-27.300781 32.960938c-2.304688 2.78125-2.113281 6.859375.4375 9.414062l45.546875 45.558594c2.554687 2.554688 6.632813 2.746094 9.417969.441406l32.980468-27.3125c16.039063 9.882813 33.507813 17.242188 51.785157 21.820313l4.128906 42.863281c.347656 3.589844 3.363281 6.328125 6.96875 6.328125l62.25.011719c3.605469 0 6.621094-2.738281 6.964844-6.328125l4.140625-42.871094c18.277344-4.574219 35.742187-11.933593 51.777344-21.824219l32.980468 27.3125c2.78125 2.304688 6.859375 2.113282 9.414063-.441406l45.550781-45.550781c2.554688-2.550781 2.746094-6.632813.441406-9.414063l-27.300781-32.960937c9.96875-16.003906 17.339844-33.492187 21.832031-51.808594l42.792969-4.125c3.582031-.351562 6.304687-3.371093 6.28125-6.96875v-64.582031c.023437-3.59375-2.699219-6.617188-6.28125-6.964844zm-7.71875 65.1875-41.480469 4c-3.027344.292969-5.515625 2.515625-6.148437 5.492188-4.328125 20.128906-12.394531 39.273437-23.78125 56.429687-1.699219 2.574219-1.515625 5.957031.453125 8.332031l26.5 31.992188-36.535156 36.535156-31.992188-26.5c-2.363281-1.957031-5.730469-2.144531-8.300781-.464844-17.226563 11.308594-36.367188 19.382813-56.488281 23.832032-2.960938.65625-5.164063 3.144531-5.453126 6.164062l-4.011718 41.53125-49.535156-.007812-4-41.523438c-.289063-3.019531-2.492188-5.507812-5.449219-6.164062-20.121094-4.453125-39.265625-12.523438-56.5-23.820313-2.570313-1.683593-5.9375-1.496093-8.300781.464844l-31.992188 26.492187-36.539062-36.550781 26.5-31.992187c1.96875-2.375 2.148437-5.757813.445312-8.328125-11.386719-17.15625-19.457031-36.292969-23.792969-56.421875-.617187-2.972656-3.097656-5.195313-6.117187-5.492188l-41.484375-4v-51.863281l41.484375-4c3.011718-.292969 5.492187-2.496094 6.136718-5.453125 4.4375-20.121094 12.503907-39.269531 23.800782-56.5 1.679687-2.570312 1.488281-5.9375-.472656-8.300781l-26.238282-31.679688 23.691406-20.941406 43.46875 60.253906c-50.078124 54.652344-47.605468 139.214844 5.574219 190.847657 53.183594 51.632812 137.785157 51.605468 190.929688-.0625 53.148437-51.667969 55.5625-136.234376 5.449219-190.851563l41.886718-60.105469 23.59375 20.859375-26.238281 31.679688c-1.960937 2.367187-2.148437 5.730469-.464844 8.300781 11.296875 17.234375 19.367188 36.378906 23.8125 56.5.632813 2.953125 3.105469 5.160156 6.113281 5.453125l41.480469 4zm0 0"/><path d="m276.390625 261.53125v-5.640625h41.429687c3.890626 0 7.058594-3.128906 7.105469-7.019531 0-42.195313-13.535156-64.988282-48.535156-82.601563v-51.359375c-.109375-34.527344-11.339844-68.101562-32.027344-95.75l-12.320312-16.359375c-1.332031-1.765625-3.410157-2.800781-5.621094-2.800781-2.207031 0-4.289063 1.035156-5.617187 2.800781l-12.382813 16.359375c-20.6875 27.644532-31.921875 61.21875-32.03125 95.75v50.828125c-35 17.019531-48.535156 40-48.535156 83.132813.046875 3.886718 3.210937 7.015625 7.101562 7.019531h41.433594v5.640625c.070313 3.976562 3.234375 7.207031 7.210937 7.359375h2.386719l-.597656 25.816406v.222657c.035156 6.59375 4.945313 12.144531 11.484375 12.988281-.023438.546875-.015625 1.089843-.015625 1.632812 0 21.96875 16.5 41.929688 27.191406 44.074219.453125.132812.917969.222656 1.390625.265625h1.578125c.464844-.042969.925781-.132813 1.375-.265625 10.816407-2.167969 27.5-22.078125 27.5-44.011719 0-.046875 0-.125 0-.171875-.011719-.492187-.03125-1-.054687-1.5 6.59375-.785156 11.527344-6.425781 11.425781-13.0625l-.476563-25.988281h2.386719c3.976563-.152344 7.144531-3.382813 7.214844-7.359375zm34.292969-19.640625h-34.292969v-59.78125c24 13.515625 33.078125 29.78125 34.292969 59.78125zm-91.070313-214.332031 6.726563-8.890625 6.796875 8.890625c18.882812 25.21875 29.140625 55.847656 29.253906 87.351562v133.539063c0 .136719-.019531.265625-.019531.402343 0 .136719.019531.261719.019531.394532v5.644531h-72v-84.300781c0-.132813.03125-.261719.03125-.394532 0-.199218-.03125-.398437-.03125-.601562v-54.683594c.101563-31.5 10.351563-62.128906 29.222656-87.351562zm-77.53125 214.332031c1.136719-31 10.308594-47.253906 34.308594-60.441406v60.441406zm84.136719 97.585937c-4.472656-2.421874-15.328125-15.023437-15.328125-30 0-.5.015625-.585937.042969-1.585937h30.871094c.027343 1 .074218 1.128906.085937 1.65625-.035156 15.589844-11.648437 27.664063-15.671875 29.929687zm27.027344-45.585937h-53.710938l.453125-25h52.800781zm0 0"/><path d="m226.390625 202.03125c15.765625 0 28.550781-12.785156 28.550781-28.550781 0-15.769531-12.785156-28.550781-28.550781-28.550781-15.769531 0-28.550781 12.78125-28.550781 28.550781-.0625 7.589843 2.925781 14.886719 8.292968 20.257812 5.367188 5.367188 12.667969 8.355469 20.257813 8.292969zm0-43.101562c5.886719-.003907 11.195313 3.542968 13.445313 8.980468 2.25 5.441406 1 11.699219-3.171876 15.855469-2.714843 2.738281-6.417968 4.273437-10.273437 4.265625-8.035156 0-14.550781-6.515625-14.550781-14.550781 0-8.035157 6.515625-14.550781 14.550781-14.550781zm0 0"/></g></svg>