<?xml version="1.0" encoding="UTF-8" standalone="no"?>
<svg
   xmlns:osb="http://www.openswatchbook.org/uri/2009/osb"
   xmlns:dc="http://purl.org/dc/elements/1.1/"
   xmlns:cc="http://creativecommons.org/ns#"
   xmlns:rdf="http://www.w3.org/1999/02/22-rdf-syntax-ns#"
   xmlns:svg="http://www.w3.org/2000/svg"
   xmlns="http://www.w3.org/2000/svg"
   xmlns:sodipodi="http://sodipodi.sourceforge.net/DTD/sodipodi-0.dtd"
   xmlns:inkscape="http://www.inkscape.org/namespaces/inkscape"
   inkscape:export-ydpi="101.6"
   inkscape:export-xdpi="101.6"
   inkscape:export-filename="C:\Users\chayb\Documents\stream\logo2k.png"
   width="500mm"
   height="500mm"
   viewBox="0 0 500 500"
   version="1.1"
   id="svg8"
   inkscape:version="1.0 (4035a4fb49, 2020-05-01)"
   sodipodi:docname="logo.svg">
  <defs
     id="defs2">
    <linearGradient
       osb:paint="solid"
       id="linearGradient3288">
      <stop
         id="stop3286"
         offset="0"
         style="stop-color:#ff0000;stop-opacity:1;" />
    </linearGradient>
    <linearGradient
       osb:paint="solid"
       id="linearGradient1126">
      <stop
         id="stop1124"
         offset="0"
         style="stop-color:#000000;stop-opacity:1;" />
    </linearGradient>
    <linearGradient
       osb:paint="solid"
       id="linearGradient1120">
      <stop
         id="stop1118"
         offset="0"
         style="stop-color:#000000;stop-opacity:1;" />
    </linearGradient>
    <clipPath
       clipPathUnits="userSpaceOnUse"
       id="clipPath851">
      <rect
         style="fill:none;fill-rule:evenodd;stroke:#000000;stroke-width:2.35164;stroke-miterlimit:4;stroke-dasharray:none;stroke-opacity:1"
         id="rect853"
         width="149.43597"
         height="149.43596"
         x="0.49927416"
         y="64.755234" />
    </clipPath>
    <clipPath
       clipPathUnits="userSpaceOnUse"
       id="clipPath958">
      <rect
         style="fill:none;stroke:#000000;stroke-width:0.888492;stroke-miterlimit:4;stroke-dasharray:none;stroke-opacity:1"
         id="rect960"
         width="138.06107"
         height="142.90643"
         x="4.3913755"
         y="53.258568" />
    </clipPath>
    <clipPath
       id="clipPath958-1"
       clipPathUnits="userSpaceOnUse">
      <rect
         y="53.258568"
         x="4.3913755"
         height="142.90643"
         width="138.06107"
         id="rect960-9"
         style="fill:none;stroke:#000000;stroke-width:0.888492;stroke-miterlimit:4;stroke-dasharray:none;stroke-opacity:1" />
    </clipPath>
  </defs>
  <sodipodi:namedview
     id="base"
     pagecolor="#ffffff"
     bordercolor="#666666"
     borderopacity="1.0"
     inkscape:pageopacity="0.0"
     inkscape:pageshadow="2"
     inkscape:zoom="0.25898879"
     inkscape:cx="677.76562"
     inkscape:cy="957.79381"
     inkscape:document-units="mm"
     inkscape:current-layer="layer1"
     inkscape:document-rotation="0"
     showgrid="false"
     inkscape:window-width="1366"
     inkscape:window-height="715"
     inkscape:window-x="-8"
     inkscape:window-y="-8"
     inkscape:window-maximized="1">
    <inkscape:grid
       type="xygrid"
       id="grid26" />
  </sodipodi:namedview>
  <metadata
     id="metadata5">
    <rdf:RDF>
      <cc:Work
         rdf:about="">
        <dc:format>image/svg+xml</dc:format>
        <dc:type
           rdf:resource="http://purl.org/dc/dcmitype/StillImage" />
        <dc:title />
      </cc:Work>
    </rdf:RDF>
  </metadata>
  <g
     inkscape:label="Layer 1"
     inkscape:groupmode="layer"
     id="layer1">
    <text
       id="text1078"
       y="428.94324"
       x="591.91943"
       style="font-style:normal;font-weight:normal;font-size:28.6854px;line-height:1.25;font-family:sans-serif;fill:#000000;fill-opacity:1;stroke:none;stroke-width:0.717137"
       xml:space="preserve"><tspan
         style="font-style:normal;font-variant:normal;font-weight:normal;font-stretch:normal;font-family:Bahnschrift;-inkscape-font-specification:Bahnschrift;stroke-width:0.717137"
         y="428.94324"
         x="591.91943"
         id="tspan1076"
         sodipodi:role="line">twitch.tv/chaybe</tspan></text>
    <g
       id="g102">
      <path
         id="rect1074"
         style="mix-blend-mode:normal;fill:#ffffff;fill-opacity:1;fill-rule:nonzero;stroke:none;stroke-width:0.589392;stroke-miterlimit:4;stroke-dasharray:none"
         d="m 143.90495,112.45374 24.72898,-11.53583 9.73382,-1.402517 0.83209,-9.087334 4.62957,-3.865815 14.18694,-9.946822 16.71859,2.553179 6.17965,-4.835553 8.31572,-4.044414 9.66066,-3.965301 11.71762,2.2847 9.82206,5.376672 8.63534,-6.173962 19.7252,-1.888987 22.49419,7.446455 9.03038,3.520184 6.19556,7.110823 7.33327,4.979851 5.655,8.560139 8.09181,0.940672 7.77537,11.62111 10.98597,24.28988 9.71393,25.68373 0.31578,6.02612 0.49355,12.36146 -2.73288,23.91004 -2.54764,13.67024 1.24982,12.56265 -3.07662,12.94035 3.88541,24.33275 -10.67048,67.5338 -12.6091,48.77589 -138.70934,18.68941 -57.35539,-49.09409 -10.65508,-29.04098 -4.61429,-33.32618 -3.28343,-35.93043 -5.57626,-19.61127 0.0966,-18.63032 5.06159,-18.71562 -5.79115,-13.00954 -2.13696,-19.38694 4.15304,-10.4846 2.1752,-12.46246 z"
         sodipodi:nodetypes="ccccccccccccccccccccccccccccccccccccccccccccc" />
      <path
         sodipodi:nodetypes="cccccccccccccccccccccccccccccccccccc"
         d="m 323.1655,209.73499 11.86321,-5.22692 1.74595,5.40579 4.80454,10.78896 0.81623,-2.11814 1.79014,0.0559 10.78546,20.61339 1.45408,14.05291 11.55109,13.25972 -4.99259,66.84537 -12.6091,48.77588 -138.70934,18.68943 -57.35539,-49.0941 -10.65508,-29.04098 -4.61429,-33.32618 6.75535,-29.9761 2.65332,-19.06652 9.48106,-3.6701 -0.93355,-17.36724 16.21592,-7.87398 9.64443,4.64435 6.84225,-1.66112 7.75431,-4.49434 12.01205,-6.94444 6.94446,4.12913 13.21236,2.11644 13.27823,-2.95271 13.86228,-1.79137 6.006,-0.56306 9.99804,0.14187 9.95544,-0.73752 5.38437,1.72177 14.52652,-3.19682 9.12218,-3.74762 7.50749,9.19669 z"
         style="mix-blend-mode:normal;fill:#ffffff;fill-opacity:1;fill-rule:nonzero;stroke:none;stroke-width:0.589;stroke-miterlimit:4;stroke-dasharray:none"
         id="rect1074-8" />
      <g
         id="g1072"
         transform="matrix(2.2137087,0,0,2.2137087,26.848672,-34.55519)"
         inkscape:export-xdpi="25"
         inkscape:export-ydpi="25">
        <path
           style="fill:none;stroke:none;stroke-width:0.268027px;stroke-linecap:butt;stroke-linejoin:miter;stroke-opacity:1"
           d="m 103.97565,233.50254 -10.260198,-8e-5 L 64.751216,214.91347 46.162227,195.89218 36.103545,177.30342 V 136.66728 98.624213 L 51.782153,81.4751 h 52.193497 z"
           id="path859"
           sodipodi:nodetypes="cccccccccc" />
        <path
           style="fill:#000039;fill-opacity:1;stroke:#ffffff;stroke-width:0.268027px;stroke-linecap:butt;stroke-linejoin:miter;stroke-opacity:1"
           d="m 35.973838,137.16826 6.964829,-7.13298 v 9.51065 l 1.513057,4.53917 -2.377662,9.07834 2.161511,2.80997 1.296906,6.05222 v 3.45842 l 3.026115,4.53918 1.729207,3.89072 2.593812,2.1615 2.377662,6.05223 2.809963,2.16151 1.945359,2.80997 3.890718,1.2969 1.945361,1.94536 4.755321,-0.8646 5.619929,-2.16151 4.233487,-1.55464 4.628703,-4.71375 6.091565,-4.80776 4.789226,-1.53703 5.670133,-0.41694 2.92948,2.46923 -3.13701,2.45746 -2.704144,2.78919 -1.82034,2.44415 -1.212009,3.10491 -2.353824,3.08957 -2.600698,3.42152 -3.152596,2.03761 -0.968743,2.90812 1.431766,3.17869 2.657121,2.0039 3.026117,-0.48634 2.377659,0.4323 2.37767,-1.04116 3.296301,-1.26881 1.94536,-0.0618 1.24199,1.74239 2.9e-4,37.63075 -3.89012,-2.80996 -2.161516,-2.59381 0.397467,4.22263 -6.196469,-4.59162 1.238094,3.5633 -3.473777,-2.02777 -2.556725,-3.97651 0.810663,3.77722 -2.608611,-1.41042 -2.092771,-3.01525 0.129994,2.53649 -3.891097,-2.02253 -1.426522,-4.62083 -0.270191,3.91774 -4.323019,-3.89072 -0.594415,-4.35004 -1.296906,3.24226 -3.782643,-3.35034 -1.945359,-5.94414 -0.972683,4.05282 -4.323019,-4.4311 -1.18883,-6.3224 -1.296907,4.10687 -4.052831,-4.32303 -1.459018,-5.61993 -0.97268,4.32303 -2.809965,-4.4311 -0.756529,-4.4311 -1.296907,2.59381 -3.13419,-4.43109 -0.756528,-5.728 -1.729207,3.24227 -2.16151,-3.45842 -0.611367,-3.27936 0.611368,-4.50209 -2.91804,4.8634 -1.236826,-5.29569 v -10.48544 -8.96824 -7.5652 -7.34944 -6.59271 z"
           id="path876"
           sodipodi:nodetypes="cccccccccccccccccccccccccccccccccccccccccccccccccccccccccccccccccccccccccccccccccccc" />
        <path
           style="fill:#000039;fill-opacity:1;stroke:none;stroke-width:0.268027px;stroke-linecap:butt;stroke-linejoin:miter;stroke-opacity:1"
           d="m 93.172988,128.84646 -0.216151,-14.04982 -1.945361,2.91804 -1.296906,-1.72921 -0.756529,0.10807 -1.945357,-1.83728 -0.648456,0.4323 -2.161508,-1.40499 -0.972678,1.40499 -4.214947,-1.62113 0.108074,1.2969 -4.755321,-0.8646 0.108074,1.18883 -3.674566,-0.97268 -1.296906,0.64845 -2.269585,-0.54037 -1.837284,1.62113 -2.701889,-0.21615 -0.540379,0.8646 -3.35034,0.43231 -0.972679,2.16151 -2.701887,1.18882 -1.188832,3.35034 -0.216151,4.64726 h 0.648452 l -0.324225,2.91803 2.269586,-4.32302 1.080755,-1.94536 1.080756,1.40498 1.296906,-2.59381 0.648452,0.64845 1.837284,-1.62113 1.404981,1.29691 1.72921,-1.08076 0.864602,0.75653 1.513057,-0.86461 1.621133,1.29692 1.080756,-0.86461 1.080756,0.54038 0.864602,-0.21616 1.080756,0.54039 1.188832,-0.64845 1.513057,0.97267 1.513056,-0.4323 0.540379,0.8646 0.972679,-0.32422 1.18883,0.64844 1.296906,-0.64844 0.864604,1.08075 1.080756,-0.32423 0.540378,0.75653 0.756529,-0.32422 1.188829,0.75653 1.404983,-0.32423 0.648452,1.18883 0.972679,0.10808 0.864605,1.2969 0.864605,-0.10808 0.97268,1.72921 0.972678,2.26959 z"
           id="path990" />
        <path
           sodipodi:nodetypes="cccccccccc"
           id="path859-4"
           d="m 105.9718,233.50254 10.2602,-8e-5 28.96424,-18.58899 18.58898,-19.02129 10.05869,-18.58876 V 136.66728 98.624213 L 158.1653,81.4751 h -52.1935 z"
           style="fill:none;stroke:none;stroke-width:0.268027px;stroke-linecap:butt;stroke-linejoin:miter;stroke-opacity:1" />
        <g
           style="fill:#690000;fill-opacity:1"
           id="g1012">
          <path
             sodipodi:nodetypes="czcczcccccccc"
             id="path861"
             d="m 35.799895,172.64658 c 0,0 -9.842866,-3.3531 -12.865565,-7.09111 -3.022699,-3.73801 -4.052066,-10.37836 -4.052066,-10.37836 v -36.37609 c 0,0 1.265869,-3.77084 4.052066,-6.93543 2.786197,-3.16458 9.869607,-4.26679 9.869607,-4.26679 l 0.0019,3.61114 -0.104587,3.66436 0.01404,4.53097 2.080809,5.4055 -0.09093,4.45998 1.246603,10.4528 z"
             style="fill:#690000;fill-opacity:1;stroke:#ffffff;stroke-width:0.268027px;stroke-linecap:butt;stroke-linejoin:miter;stroke-opacity:1" />
          <path
             sodipodi:nodetypes="ccccc"
             id="path865"
             d="m 18.882264,118.80102 -10.3078217,5.96083 v 24.58536 l 10.3078217,5.8299 z"
             style="fill:#690000;fill-opacity:1;stroke:#ffffff;stroke-width:0.268027px;stroke-linecap:butt;stroke-linejoin:miter;stroke-opacity:1" />
          <path
             style="fill:#690000;fill-opacity:1;stroke:#ffffff;stroke-width:0.268027px;stroke-linecap:butt;stroke-linejoin:miter;stroke-opacity:1"
             d="m 174.14756,172.64658 c 0,0 9.84286,-3.3531 12.86556,-7.09111 3.0227,-3.73801 4.05207,-10.37836 4.05207,-10.37836 v -36.37609 c 0,0 -1.26587,-3.77084 -4.05207,-6.93543 -2.7862,-3.16458 -12.96546,-5.02745 -12.96546,-5.02745 l 0.7939,5.80599 -0.77747,4.59492 -0.57327,2.87482 0.38339,2.6926 0.0836,8.68632 0.0379,8.23076 0.038,8.23075 0.038,8.23076 0.0379,8.23076 z"
             id="path861-1"
             sodipodi:nodetypes="czcczccccccccccc" />
          <path
             style="fill:#690000;fill-opacity:1;stroke:#ffffff;stroke-width:0.268027px;stroke-linecap:butt;stroke-linejoin:miter;stroke-opacity:1"
             d="m 191.06519,118.80102 10.30782,5.96083 v 24.58536 l -10.30782,5.8299 z"
             id="path865-7"
             sodipodi:nodetypes="ccccc" />
        </g>
        <g
           style="fill:#000000;fill-opacity:1"
           id="g1016">
          <path
             sodipodi:nodetypes="zccczzcccccccczz"
             id="path867"
             d="m 9.9926978,99.795675 c -0.92169,9.692295 2.7511532,41.420145 2.7511532,41.420145 l 1.681261,1.68127 1.68126,-1.68127 c 0,0 -0.851213,-34.09272 0,-42.948564 0.851212,-8.855841 0.02331,-4.976109 1.986945,-10.240401 1.963638,-5.264293 11.615981,-20.175128 11.615981,-20.175128 l 2.782693,-3.243374 1.804353,-2.526402 2.267954,-5.189764 1.851994,-2.123084 -0.09451,-1.058426 -0.292394,-1.893594 -11.376927,13.436335 c 0,0 -9.695959,12.285412 -12.38019,18.18818 -2.684231,5.902766 -3.357882,6.661778 -4.2795732,16.354077 z"
             style="fill:#000000;fill-opacity:1;stroke:#fffffa;stroke-width:0.268027px;stroke-linecap:butt;stroke-linejoin:miter;stroke-opacity:1" />
          <path
             sodipodi:nodetypes="zccczzccccczz"
             style="fill:#000000;fill-opacity:1;stroke:#fffffa;stroke-width:0.268027px;stroke-linecap:butt;stroke-linejoin:miter;stroke-opacity:1"
             d="m 199.95475,99.795675 c 0.92169,9.692295 -2.75115,41.420145 -2.75115,41.420145 l -1.68126,1.68127 -1.68126,-1.68127 c 0,0 0.85121,-34.09272 0,-42.948564 -0.85121,-8.855841 -0.0233,-4.976109 -1.98695,-10.240401 -1.96363,-5.264293 -11.61598,-20.175128 -11.61598,-20.175128 l -8.94412,-10.016325 -2.71137,-8.3442 4.9872,3.899613 9.72513,11.862603 c 0,0 9.69596,12.285412 12.38019,18.18818 2.68423,5.902766 3.35788,6.661778 4.27957,16.354077 z"
             id="path867-0" />
        </g>
        <path
           sodipodi:nodetypes="cccccccccccccccccccccccccccccccccccccccccccccccccccccccccccccccccccccccccccccccccccc"
           id="path876-4"
           d="m 173.97361,137.16826 -6.96483,-7.13298 v 9.51065 l -1.51305,4.53917 2.37766,9.07834 -2.16151,2.80997 -1.29691,6.05222 v 3.45842 l -3.02611,4.53918 -1.72921,3.89072 -2.59381,2.1615 -2.37766,6.05223 -2.80997,2.16151 -1.94536,2.80997 -3.89071,1.2969 -1.94536,1.94536 -4.75533,-0.8646 -5.61992,-2.16151 -4.23349,-1.55464 -4.62871,-4.71375 -6.09156,-4.80776 -4.78923,-1.53703 -5.67013,-0.41694 -2.92948,2.46923 3.13701,2.45746 2.70415,2.78919 1.82034,2.44415 1.212,3.10491 2.35383,3.08957 2.6007,3.42152 3.15259,2.03761 0.96874,2.90812 -1.43176,3.17869 -2.65712,2.0039 -3.02612,-0.48634 -2.37766,0.4323 -2.37767,-1.04116 -3.2963,-1.26881 -1.94536,-0.0618 -1.24258,1.74239 -2.9e-4,37.63075 3.89071,-2.80996 2.16152,-2.59381 -0.39747,4.22263 6.19647,-4.59162 -1.23809,3.5633 3.47377,-2.02777 2.55673,-3.97651 -0.81067,3.77722 2.60862,-1.41042 2.09277,-3.01525 -0.13,2.53649 3.8911,-2.02253 1.42652,-4.62083 0.27019,3.91774 4.32302,-3.89072 0.59442,-4.35004 1.2969,3.24226 3.78265,-3.35034 1.94535,-5.94414 0.97269,4.05282 4.32302,-4.4311 1.18883,-6.3224 1.2969,4.10687 4.05283,-4.32303 1.45902,-5.61993 0.97268,4.32303 2.80997,-4.4311 0.75653,-4.4311 1.2969,2.59381 3.13419,-4.43109 0.75653,-5.728 1.72921,3.24227 2.16151,-3.45842 0.61136,-3.27936 -0.61136,-4.50209 2.91804,4.8634 1.23682,-5.29569 v -10.48544 -8.96824 -7.5652 -7.34944 -6.59271 z"
           style="fill:#000039;fill-opacity:1;stroke:#ffffff;stroke-width:0.268027px;stroke-linecap:butt;stroke-linejoin:miter;stroke-opacity:1" />
        <g
           style="fill:#000039;fill-opacity:1"
           id="g1001">
          <path
             id="path962"
             d="m 59.666302,134.03225 2.751152,-4.73809 3.515363,-1.37558 20.022285,1.8341 3.821047,3.97389 1.222735,4.89094 -2.44547,-4.27957 -3.056838,-3.20968 -19.105231,-1.68126 -3.515363,0.91705 z"
             style="fill:#000039;fill-opacity:1;stroke:none;stroke-width:0.268027px;stroke-linecap:butt;stroke-linejoin:miter;stroke-opacity:1" />
          <path
             sodipodi:nodetypes="cccccccc"
             id="path964"
             d="m 68.473815,129.27498 -0.24837,4.05032 1.375578,3.05683 4.279572,1.22274 5.590248,-0.88924 1.440478,-2.9318 -1.069893,-3.51537 z"
             style="fill:#000039;fill-opacity:1;stroke:none;stroke-width:0.268027px;stroke-linecap:butt;stroke-linejoin:miter;stroke-opacity:1" />
          <path
             style="fill:#000039;fill-opacity:1;stroke:none;stroke-width:0.268027px;stroke-linecap:butt;stroke-linejoin:miter;stroke-opacity:1"
             d="m 150.28115,134.03225 -2.75115,-4.73809 -3.51537,-1.37558 -20.02228,1.8341 -3.82105,3.97389 -1.22273,4.89094 2.44547,-4.27957 3.05684,-3.20968 19.10523,-1.68126 3.51536,0.91705 z"
             id="path962-8" />
          <path
             style="fill:#000039;fill-opacity:1;stroke:none;stroke-width:0.268027px;stroke-linecap:butt;stroke-linejoin:miter;stroke-opacity:1"
             d="m 141.47364,129.27498 0.24837,4.05032 -1.37558,3.05683 -4.27957,1.22274 -5.59025,-0.88924 -1.44048,-2.9318 1.06989,-3.51537 z"
             id="path964-7"
             sodipodi:nodetypes="cccccccc" />
        </g>
        <path
           id="path990-4"
           d="m 116.77446,128.84646 0.21615,-14.04982 1.94536,2.91804 1.29691,-1.72921 0.75653,0.10807 1.94536,-1.83728 0.64845,0.4323 2.16151,-1.40499 0.97268,1.40499 4.21495,-1.62113 -0.10808,1.2969 4.75532,-0.8646 -0.10807,1.18883 3.67456,-0.97268 1.29691,0.64845 2.26959,-0.54037 1.83728,1.62113 2.70189,-0.21615 0.54038,0.8646 3.35034,0.43231 0.97268,2.16151 2.70188,1.18882 1.18884,3.35034 0.21615,4.64726 h -0.64845 l 0.32422,2.91803 -2.26959,-4.32302 -1.08075,-1.94536 -1.08076,1.40498 -1.2969,-2.59381 -0.64846,0.64845 -1.83728,-1.62113 -1.40498,1.29691 -1.72921,-1.08076 -0.8646,0.75653 -1.51306,-0.86461 -1.62113,1.29692 -1.08076,-0.86461 -1.08075,0.54038 -0.86461,-0.21616 -1.08075,0.54039 -1.18883,-0.64845 -1.51306,0.97267 -1.51306,-0.4323 -0.54038,0.8646 -0.97268,-0.32422 -1.18882,0.64844 -1.29691,-0.64844 -0.86461,1.08075 -1.08075,-0.32423 -0.54038,0.75653 -0.75653,-0.32422 -1.18883,0.75653 -1.40498,-0.32423 -0.64845,1.18883 -0.97268,0.10808 -0.86461,1.2969 -0.8646,-0.10808 -0.97268,1.72921 -0.97268,2.26959 z"
           style="fill:#000039;fill-opacity:1;stroke:none;stroke-width:0.268027px;stroke-linecap:butt;stroke-linejoin:miter;stroke-opacity:1" />
        <path
           sodipodi:nodetypes="ccccccc"
           d="m 103.67283,202.03366 1.28645,0.38854 1.28642,-0.39297 0.0265,37.68479 -1.29923,1.42287 -1.06301,-1.42287 z"
           style="fill:#000039;fill-opacity:1;stroke:none;stroke-width:0.415781;stroke-miterlimit:4;stroke-dasharray:none;stroke-opacity:1"
           id="rect1179" />
        <g
           style="fill:#000039;fill-opacity:1"
           id="g995">
          <path
             sodipodi:nodetypes="cccccccccccccccccccccccccccccccccccccccccccccccccc"
             id="path1048"
             d="m 38.264754,133.32328 -5.443074,-13.91801 0.226792,-17.22059 2.721536,-7.312849 -2.494745,-6.369258 -1.58756,-7.784647 -0.226802,-7.312846 2.494746,-4.95387 0.453593,-6.369259 2.267954,-5.189764 1.814362,-2.123084 -0.680395,-5.189766 3.628723,-6.369256 7.030654,-3.302577 3.855514,-3.066678 h 4.082316 l 4.535898,0.471795 0.344699,-5.567374 1.951071,-7.256044 4.681654,-1.117609 -3.27011,2.419384 -0.907176,5.414896 -0.480205,2.89984 1.308777,4.622298 -5.896667,0.943595 -5.896666,1.41539 6.803852,-0.235898 -8.391422,3.066679 -6.803853,1.415391 -4.082305,6.133357 1.360768,3.774373 2.721537,-1.651288 -2.494745,3.066682 0.680384,3.06667 3.401931,5.661565 -4.989491,-4.010271 -1.58757,-4.95387 -2.494746,3.538482 -0.680384,4.246165 2.494746,7.076952 3.855514,4.717976 -5.443074,-4.010271 -2.267954,-1.887188 -2.041153,6.369259 1.360769,9.435929 2.948338,5.897458 1.58756,1.651294 -3.17513,7.312847 -0.680384,18.63598 z"
             style="fill:#000039;fill-opacity:1;stroke:none;stroke-width:0.286814px;stroke-linecap:butt;stroke-linejoin:miter;stroke-opacity:1" />
          <path
             sodipodi:nodetypes="ccccccccccccccccccccccccccccccccccccccc"
             id="path1050"
             d="m 63.212209,31.179264 2.097859,-4.364122 7.030644,-3.538475 5.953382,0.353848 4.705984,1.41539 2.211249,-2.241034 4.309117,-1.887189 4.535888,-3.06668 6.350278,0.235899 5.55649,2.241034 2.60811,1.651292 6.69049,8.020544 -8.41658,-7.082879 -2.46959,-1.084236 2.96611,3.198939 1.68317,3.198937 -7.59999,-6.760104 -3.252957,-1.769239 -4.002109,0.272901 -6.463671,3.420527 -2.494756,1.17949 -0.113391,2.123088 2.494757,2.005136 2.381334,1.651288 4.422507,-0.825643 4.195717,-2.358986 -3.628744,3.420527 -4.762668,1.29744 1.247346,4.48207 -3.401899,-5.071816 -3.968915,-2.005134 -4.53592,-3.30258 -3.515322,-0.353845 -3.628722,0.707693 5.669886,1.061543 -7.71105,0.353848 -4.195695,3.18463 -1.389467,4.7335 z"
             style="fill:#000039;fill-opacity:1;stroke:none;stroke-width:0.286814px;stroke-linecap:butt;stroke-linejoin:miter;stroke-opacity:1" />
          <path
             id="path1052"
             d="m 115.93098,20.472369 -2.96679,0.0834 -8.6599,7.42284 6.01382,-7.506241 2.24514,-1.584651 3.68847,0.250209 7.05621,-2.585485 7.03563,1.062662 2.72153,3.302577 6.12346,1.061545 4.42251,2.358982 2.26795,3.066679 3.06173,1.533341 2.15456,2.123084 2.72153,0.589746 3.96892,3.066679 -3.17513,-0.353845 3.17513,4.364119 2.04116,9.08209 -4.0823,-9.08209 0.3402,5.071816 -3.40194,-6.133359 -2.04116,-5.307712 -4.4225,-3.420528 -1.36077,3.420528 -1.92775,-7.076953 -7.14407,-1.887187 1.8144,2.948729 1.47414,5.189766 -3.85551,-6.01541 -6.23686,-1.061542 2.94834,6.487206 -5.55649,-8.492343 -3.51532,-2.712831 -4.64931,1.297441 -2.38134,3.066678 -0.56697,5.89746 -0.90719,-6.251308 z"
             style="fill:#000039;fill-opacity:1;stroke:none;stroke-width:0.286814px;stroke-linecap:butt;stroke-linejoin:miter;stroke-opacity:1" />
          <path
             sodipodi:nodetypes="cccccccccccccccccccccccccccccccccccc"
             id="path1065"
             d="m 149.62741,37.412176 4.07917,-1.347219 3.51788,-0.45064 2.76912,1.010539 2.32809,2.9288 5.21628,7.430801 7.71102,22.764199 3.96891,10.733376 -6.80383,-11.559023 -1.81436,7.784647 -6.23689,6.251306 5.1029,-8.020541 -2.38133,-5.071823 2.60815,2.005141 -0.90721,-11.91287 -1.70094,-3.066682 -1.36077,8.020552 -6.57706,9.671835 3.62871,-7.666705 -4.9895,2.00514 5.7833,-5.543611 2.15455,-7.076953 0.22678,-6.25131 -1.92775,8.25644 -3.06173,5.42567 -4.64931,3.184624 4.0823,-5.307706 2.72156,-7.902602 -0.45359,-5.189767 -1.13399,2.241036 0.56699,-5.307714 -2.49473,-2.830781 1.36077,-0.943592 -2.674,-4.116367 -3.80855,-0.751748 z"
             style="fill:#000039;fill-opacity:1;stroke:none;stroke-width:0.286814px;stroke-linecap:butt;stroke-linejoin:miter;stroke-opacity:1" />
          <g
             style="fill:#000039;fill-opacity:1;stroke:none;stroke-opacity:1"
             id="g1243"
             transform="matrix(1.0130165,0,0,1.0130165,-4.527279,-22.783495)">
            <path
               style="fill:#000039;fill-opacity:1;stroke:none;stroke-width:0.264583px;stroke-linecap:butt;stroke-linejoin:miter;stroke-opacity:1"
               d="m 175.09281,92.613032 3.20062,3.627353 1.17355,5.334345 -0.42674,3.94743 -0.53345,1.49361 v 5.22766 l -0.64011,5.33434 v 2.56048 l -1.81369,6.72127 0.85349,6.82796 -1.17353,5.86777 -3.09394,7.04133 0.42675,-6.29452 0.64013,-5.33434 0.64011,-5.54772 -0.64011,-9.81518 1.92035,0.7468 -0.10668,-6.61458 -1.70699,0.96018 1.70699,-3.41397 -3.20061,2.02705 3.20061,-3.62736 0.53343,-2.66717 -0.96018,-2.98723 0.32007,-0.85349 1.70699,1.38692 0.74681,-3.20061 -1.81369,-5.120975 z"
               id="path1222" />
            <path
               style="fill:#000039;fill-opacity:1;stroke:none;stroke-width:0.264583px;stroke-linecap:butt;stroke-linejoin:miter;stroke-opacity:1"
               d="m 158.6086,127.63192 1.81369,2.18708 3.494,7.52142 1.81367,3.62735 -0.32007,2.77386 -1.70699,-2.02705 2.88055,5.6544 4.9076,6.40121 -1.06688,-4.9076 -0.96018,-5.44103 3.09394,4.37417 -3.94743,-8.53495 -4.16078,-5.44103 3.84072,3.09392 5.54773,1.70699 -5.76109,-3.62736 -4.05411,-4.58753 -2.77386,-8.00151 0.08,3.81405 -2.10709,-3.49399 1.70699,5.44103 -2.77384,-2.77386 z"
               id="path1224"
               sodipodi:nodetypes="ccccccccccccccccccccccc" />
            <path
               style="fill:#000039;fill-opacity:1;stroke:none;stroke-width:0.264583px;stroke-linecap:butt;stroke-linejoin:miter;stroke-opacity:1"
               d="m 157.72845,113.12251 4.02743,6.0278 2.16041,2.72052 2.61382,3.62735 2.32043,2.6405 -3.8674,-1.68032 -5.12095,-7.04133 -2.34712,-4.48085 -2.10839,2.84172 1.04151,7.5069 2.66718,5.33434 -3.73403,-5.01428 -0.96018,-5.97446 -3.86741,3.52067 2.69385,0.53343 -2.42713,1.30691 -2.80053,-0.0267 -3.30729,-0.64012 -2.24041,-4.37416 -4.80092,-0.21337 4.37417,-1.06687 -0.85349,-2.66717 -7.25472,3.94741 -2.88055,2.4538 -5.33434,0.10669 -5.01428,1.70698 3.62736,-2.56048 -1.70698,-1.28024 -3.52068,2.66717 -4.9076,0.74681 -0.74679,-1.49362 -2.34712,1.60031 -4.90759,0.10668 5.12095,-1.17355 2.02706,-2.56049 v -0.96018 l -3.41397,0.32006 -2.56048,1.92037 -4.26749,2.02704 -2.98723,0.21338 -2.4538,0.85349 -2.98722,-0.42675 -0.10668,0.96019 -2.02706,-0.96019 -2.45379,1.06687 -1.38692,-1.70699 -3.62736,-1.81367 0.32006,2.56048 -1.92037,-2.98723 -3.0939,0.21338 -1.70701,1.28024 0.74681,1.49361 -3.232215,-0.74697 -3.070506,0.7866 -2.6982,0.40518 -2.113687,-1.77096 2.793038,0.47266 1.92037,-1.06687 -2.991407,-1.24095 -1.169373,-1.95966 3.62733,1.49362 5.12098,-0.10669 4.05411,-0.96018 -1.17356,-2.56048 2.56048,1.70699 3.94742,0.64012 4.26747,-0.42675 3.94739,-1.49361 -5.44102,2.77385 -2.77384,0.8535 3.62733,0.74681 5.76109,0.10668 1.70699,-0.85349 -2.4538,-1.06687 3.52068,0.53343 h 3.0939 l 3.62736,-1.49361 -1.81366,-2.02705 -0.10668,-3.09392 2.13373,-3.09392 2.98722,-3.2006 -1.6003,4.0541 -0.96018,4.16078 1.17356,1.49362 1.38692,-0.53344 -0.42674,-2.56048 1.81366,1.92036 2.02705,0.8535 2.13374,-1.81368 1.81369,-2.88054 -0.53345,2.56048 0.32006,1.92036 1.38695,-2.98723 2.77384,-4.0541 2.56048,-0.96018 -2.56048,2.88055 -1.4936,3.94741 2.66716,-1.81368 2.02705,-4.8009 -0.10668,2.77385 -1.06688,3.09392 4.0541,-5.33434 1.38692,-1.49361 -0.21336,3.94741 -0.53342,3.84072 -2.34712,2.34711 0.32006,0.8535 2.24042,-1.06687 1.38692,-4.58753 2.77386,-5.12097 -0.21336,3.84072 -1.70701,4.16079 4.26749,-3.84072 1.28024,-1.92037 -1.28024,4.0541 -6.08116,5.33434 4.80092,-1.49361 2.98723,-4.80091 2.88054,-6.82796 -1.49363,6.40121 -1.81366,3.84073 4.9076,-2.13374 3.41397,-5.6544 -1.28024,4.58753 2.88054,-3.52066 2.24042,-3.20061 0.21338,2.98724 1.17356,1.49361 3.62733,-2.98723 -2.13373,4.16078 -3.84072,4.69423 -2.13373,1.6003 1.28024,2.13373 2.21833,1.37085 2.3692,-1.79759 2.34712,-2.98723 1.92035,-5.97447 -2.66716,3.84073 1.17356,-4.58753 1.70698,-2.4538 0.74682,2.13373 2.24041,-3.2006 0.85349,2.24042 z"
               id="path1226"
               sodipodi:nodetypes="cccccccccccccccccccccccccccccccccccccccccccccccccccccccccccccccccccccccccccccccccccccccccccccccccccccccccccccccccccccccccccccccccccccccccccccccc" />
          </g>
          <path
             sodipodi:nodetypes="cccccc"
             id="path1228"
             d="m 140.39883,96.437921 0.0126,-3.411404 2.24936,-2.038068 3.12051,0.265228 -2.66685,3.591397 z"
             style="fill:#000039;fill-opacity:1;stroke:none;stroke-width:0.268027px;stroke-linecap:butt;stroke-linejoin:miter;stroke-opacity:1" />
          <path
             id="path1257"
             d="m 56.092892,105.44071 0.265377,4.07624 2.718424,3.77198 -6.235017,-6.13001 -3.596795,1.78636 1.065968,1.76431 -3.278066,-1.14855 -4.258676,3.89142 -5.733527,0.0537 3.939975,-0.95653 2.216896,-2.41174 -4.312349,-1.84209 6.00854,0.43057 4.494754,-1.78396 -5.134992,-4.1929 5.692229,2.46747 -1.925058,-3.38992 5.278518,2.19007 5.426851,-1.60876 4.028518,-3.357205 -1.093623,3.675915 2.618615,2.35563 3.939946,-0.95652 c 0,0 0.843966,-2.54065 1.739558,-1.64025 0.895571,0.9004 1.37055,1.02689 1.37055,1.02689 l 2.864356,0.87114 -5.602052,2.54084 -3.662508,0.54279 2.000422,1.04152 -4.660337,-0.87596 0.649831,2.38489 -4.794219,-2.46507 z"
             style="fill:#000039;fill-opacity:1;stroke:none;stroke-width:0.268027px;stroke-linecap:butt;stroke-linejoin:miter;stroke-opacity:1"
             sodipodi:nodetypes="cccccccccccccccccccccccsccccccccc" />
          <path
             sodipodi:nodetypes="ccccccccccccccccccccccc"
             id="path1259"
             d="m 56.089872,110.42682 -6.163912,6.51612 -2.993889,4.40279 -0.528339,7.04445 -2.113335,8.27725 -1.056677,-1.93723 -0.880544,7.74891 -3.831259,-7.04935 -2.110904,6.60917 -1.630632,-12.76818 0.13313,-13.9569 1.802977,7.61977 3.8749,2.86076 3.875132,-6.7381 1.894007,-8.10268 0.438839,4.27364 1.49818,-7.92812 0.659251,5.02217 2.378056,-8.76282 0.04295,6.07817 4.183688,-5.72595 -3.920557,8.53797 z"
             style="fill:#000039;fill-opacity:1;stroke:none;stroke-width:0.268027px;stroke-linecap:butt;stroke-linejoin:miter;stroke-opacity:1" />
        </g>
        <g
           style="fill:#000039;fill-opacity:1"
           id="g1006">
          <path
             sodipodi:nodetypes="ccccccccc"
             id="path1267"
             d="m 98.89503,169.61212 5.66098,1.13715 6.55858,-0.83155 3.5109,-2.57989 -0.75809,-5.49619 2.15823,5.56134 -4.73571,4.04515 -6.73391,1.76494 z"
             style="fill:#000039;fill-opacity:1;stroke:none;stroke-width:0.268027px;stroke-linecap:butt;stroke-linejoin:miter;stroke-opacity:1" />
          <path
             sodipodi:nodetypes="ccccccc"
             id="path1269"
             d="m 113.48281,160.22235 -2.84286,-7.39143 0.37904,-14.21429 4.00207,-4.1007 -2.55103,4.90142 -0.50342,13.22404 z"
             style="fill:#000039;fill-opacity:1;stroke:none;stroke-width:0.268027px;stroke-linecap:butt;stroke-linejoin:miter;stroke-opacity:1" />
          <path
             sodipodi:nodetypes="ccscc"
             id="path1271"
             d="m 98.347251,158.77677 0.707157,-6.30763 c 0,0 -0.138581,-12.07619 0.240459,-10.93905 0.379071,1.13715 0.984363,10.91304 0.984363,10.91304 z"
             style="fill:#000039;fill-opacity:1;stroke:none;stroke-width:0.268027px;stroke-linecap:butt;stroke-linejoin:miter;stroke-opacity:1" />
        </g>
      </g>
      <path
         style="fill:#000039;fill-opacity:1;stroke:none;stroke-width:0.465466px;stroke-linecap:butt;stroke-linejoin:miter;stroke-opacity:1"
         d="m 372.06971,226.2744 11.74119,10.23646 5.90917,7.1117 2.08749,12.0891 5.03285,13.95595 1.50368,-3.52486 2.81374,13.24813 5.44778,-12.82424 5.14616,6.7216 -0.0611,-17.79406 -2.20053,-24.30174 -1.68832,16.3203 -4.55999,1.08156 -9.64139,-9.34029 -4.6246,-13.69073 2.32493,3.90744 -6.28241,-9.90177 -0.30247,8.7913 -5.57138,-14.75119 0.93888,10.514 -8.18642,-9.20063 8.20029,14.10539 z"
         id="path1259-1"
         sodipodi:nodetypes="ccccccccccccccccccccccc" />
    </g>
  </g>
</svg>
