<svg id="Layer_1" enable-background="new 0 0 512 512" height="512" viewBox="0 0 512 512" width="512" xmlns="http://www.w3.org/2000/svg" xmlns:xlink="http://www.w3.org/1999/xlink"><linearGradient id="SVGID_1_" gradientUnits="userSpaceOnUse" x1="0" x2="512" y1="256" y2="256"><stop offset="0" stop-color="#00f2fe"/><stop offset=".0208" stop-color="#03effe"/><stop offset=".2931" stop-color="#24d2fe"/><stop offset=".5538" stop-color="#3cbdfe"/><stop offset=".7956" stop-color="#4ab0fe"/><stop offset="1" stop-color="#4facfe"/></linearGradient><path d="m257 344c-74.957 0-135.939-60.609-135.939-135.108 0-34.474 20.873-79.447 62.04-133.672 29.455-38.798 58.499-68.098 59.72-69.325 3.747-3.767 8.838-5.887 14.15-5.895h.028c5.303 0 10.388 2.105 14.139 5.854 1.223 1.222 30.281 30.373 59.748 69.102 41.175 54.119 62.053 99.182 62.053 133.936 0 17.941-3.487 35.377-10.364 51.824-4.262 10.19-15.978 14.994-26.168 10.736-10.19-4.262-14.997-15.978-10.736-26.168 4.823-11.533 7.269-23.777 7.269-36.393 0-46.071-60.034-120.932-95.846-159.844-10.898 11.932-26.729 30.036-42.401 50.711-34.585 45.624-53.632 84.381-53.632 109.133 0 52.444 43.038 95.109 95.939 95.109 10.206 0 20.244-1.576 29.835-4.684 10.51-3.402 21.787 2.354 25.191 12.861s-2.354 21.786-12.861 25.191c-13.579 4.401-27.766 6.632-42.165 6.632zm170.26 151.991c23.414-5.259 42.111-11.549 55.573-18.696 19.354-10.276 29.167-23.16 29.167-38.295 0-31.771-43.823-45.473-58.224-49.975-29.701-9.286-70.223-16.175-117.187-19.92-11.015-.871-20.648 7.337-21.526 18.347-.878 11.011 7.336 20.648 18.347 21.526 38.698 3.087 72.917 8.438 98.957 15.474 21.606 5.838 31.976 11.3 36.716 14.577-7.196 4.896-25.234 13.155-62.244 20.373-41.654 8.124-95.224 12.598-150.839 12.598s-109.185-4.474-150.839-12.598c-37.01-7.218-55.048-15.477-62.244-20.373 4.694-3.245 14.909-8.632 36.095-14.408 25.652-6.994 59.41-12.348 97.624-15.484 11.009-.903 19.201-10.56 18.297-21.568-.903-11.009-10.563-19.198-21.568-18.297-46.457 3.812-86.499 10.715-115.799 19.961-14.238 4.493-57.566 18.166-57.566 49.767 0 15.135 9.813 28.019 29.167 38.295 13.462 7.147 32.159 13.438 55.573 18.696 45.971 10.323 106.791 16.009 171.26 16.009s125.289-5.686 171.26-16.009zm45.486-53.811h.01z" fill="url(#SVGID_1_)"/></svg>